<svg xmlns="http://www.w3.org/2000/svg" xml:space="preserve" width="467.56534" height="113.38587" viewBox="0 0 467.56534 113.38587"><defs><clipPath id="a" clipPathUnits="userSpaceOnUse"><path d="M0 85.039h350.674V0H0Z"/></clipPath></defs><g clip-path="url(#a)" transform="matrix(1.33333 0 0 -1.33333 0 113.386)"><path d="M0 0c-6.798 0-12.328 5.528-12.328 12.326v59.543c0 6.794 5.53 12.322 12.328 12.322h59.535c6.798 0 12.328-5.528 12.328-12.322V12.326C71.863 5.528 66.333 0 59.535 0Z" style="fill:#fff;fill-opacity:1;fill-rule:nonzero;stroke:none" transform="translate(12.749 .427)"/><path d="M0 0c6.564 0 11.906-5.342 11.906-11.906v-59.527c0-6.565-5.342-11.906-11.906-11.906h-59.529c-6.564 0-11.904 5.341-11.904 11.906v59.527C-71.433-5.342-66.093 0-59.529 0zm0 .85h-59.529c-7.044 0-12.756-5.71-12.756-12.756v-59.527c0-7.044 5.712-12.756 12.756-12.756H0c7.044 0 12.756 5.712 12.756 12.756v59.527C12.756-4.86 7.044.85 0 .85" style="fill:#8c8c8c;fill-opacity:1;fill-rule:nonzero;stroke:none" transform="translate(72.285 84.19)"/><path d="M0 0v-34.984c0-3.59 2.918-6.54 6.514-6.54 3.598 0 6.522 2.95 6.522 6.54V.292c0 11.588-6.138 17.712-17.758 17.712h-10.514c-3.59 0-6.512-2.924-6.512-6.524 0-3.596 2.922-6.54 6.512-6.54h10.2C-2.586 4.94 0 3.306 0 0" style="fill:#952687;fill-opacity:1;fill-rule:nonzero;stroke:none" transform="translate(35.993 52.58)"/><path d="M0 0h-10.479C-13.984 0-17-.566-19.484-1.654c3.513-2.75 5.677-6.874 6.347-12.288a5.318 5.318 0 0 0 2.947.878H0a6.547 6.547 0 0 1 6.548 6.54C6.548-2.922 3.628 0 0 0" style="fill:#f0861b;fill-opacity:1;fill-rule:nonzero;stroke:none" transform="translate(64.25 70.584)"/><path d="M0 0c0-3.228 1.786-5.218 5.082-5.218 3.226 0 5.149 1.99 5.149 5.218v17.853c0 8.24-5.288 11.606-11.605 11.606-5.219 0-9.133-1.992-11.467-6.044-1.099 3.434-3.846 6.044-8.378 6.044-4.668 0-7.622-2.06-9.2-5.288-.206 2.472-2.06 4.738-5.014 4.738-3.089 0-5.08-1.786-5.08-5.288V0c0-3.228 1.922-5.218 5.151-5.218 3.225 0 5.079 1.99 5.079 5.218v14.9c0 3.571 1.992 5.837 5.082 5.837 3.091 0 5.083-2.334 5.083-5.286V0c0-3.228 1.783-5.218 5.012-5.218 3.225 0 4.944 1.99 4.944 5.218v14.9c0 3.571 1.989 5.837 5.08 5.837 3.09 0 5.082-2.334 5.082-5.286z" style="fill:#8c8c8c;fill-opacity:1;fill-rule:nonzero;stroke:none" transform="translate(186.556 24.414)"/><path d="M0 0c0 4.876 2.61 9.132 7.278 9.132 4.602 0 7.281-4.256 7.281-9.132 0-4.877-2.679-9.133-7.281-9.133C2.61-9.133 0-4.877 0 0m-10.232 0c0-10.645 6.868-17.648 17.51-17.648 10.644 0 17.51 7.003 17.51 17.648 0 10.644-6.866 17.646-17.51 17.646-10.642 0-17.51-7.002-17.51-17.646" style="fill:#8c8c8c;fill-opacity:1;fill-rule:nonzero;stroke:none" transform="translate(212.202 36.226)"/><path d="M0 0c0-3.228 1.992-5.218 5.219-5.218 3.227 0 5.149 1.99 5.149 5.218v15.177c0 3.226 2.542 5.492 5.7 5.492 3.365 0 5.699-2.472 5.699-5.563V0c0-3.228 1.923-5.218 5.15-5.218 3.228 0 5.22 1.99 5.22 5.218v16.343c0 7.828-4.808 13.116-12.704 13.116-4.05 0-7.897-1.992-9.338-5.22-.206 2.404-1.786 4.67-5.013 4.67-3.228 0-5.082-2.06-5.082-5.288Z" style="fill:#8c8c8c;fill-opacity:1;fill-rule:nonzero;stroke:none" transform="translate(242.175 24.414)"/><path d="M0 0c0 3.228 3.363 5.7 7.21 5.7 3.846 0 7.21-2.472 7.21-5.7zm21.218-17.646c2.06 1.921 3.02 4.599 1.303 6.522-1.647 1.991-4.461 1.922-6.385.273-2.197-1.784-4.395-3.019-7.964-3.019C3.569-13.87 0-10.645 0-6.798h18.607c3.777 0 5.082 1.716 5.082 5.493 0 7.623-5.973 14.763-16.479 14.763-10.301 0-16.893-7.346-16.893-17.44 0-10.439 6.248-17.855 17.855-17.855 5.218 0 9.888 1.236 13.046 4.191" style="fill:#8c8c8c;fill-opacity:1;fill-rule:nonzero;stroke:none" transform="translate(289.178 40.414)"/><path d="M0 0c-1.168 2.884-3.981 4.258-6.866 2.952-2.884-1.304-3.913-3.776-2.542-6.866l11.742-25.68-1.029-2.542c-.96-2.473-2.128-5.013-4.601-5.013-.824 0-1.786.206-2.54.344-2.13.412-4.189-.688-4.808-2.953-.618-2.267.688-4.395 2.678-5.219 1.786-.756 3.502-.824 5.22-.824 7.005 0 9.751 5.15 12.978 12.154L23.827-3.914c1.374 3.09.344 5.562-2.54 6.866-2.885 1.306-5.698-.068-6.866-2.952l-7.21-17.098z" style="fill:#8c8c8c;fill-opacity:1;fill-rule:nonzero;stroke:none" transform="translate(326.257 49.959)"/><path d="M0 0c0-3.435 2.267-5.769 5.7-5.769 3.433 0 5.63 2.334 5.63 5.769v35.294h11.124c3.297 0 5.904 1.716 5.904 5.15 0 3.365-2.607 5.083-5.904 5.083h-33.51c-3.364 0-5.904-1.718-5.904-5.083 0-3.434 2.54-5.15 5.904-5.15H0Z" style="fill:#8c8c8c;fill-opacity:1;fill-rule:nonzero;stroke:none" transform="translate(123.307 24.964)"/></g></svg>